<svg width="109" height="209" viewBox="0 0 109 209" fill="none" xmlns="http://www.w3.org/2000/svg">
<path d="M27.8371 204.614L31.4596 187.677L14.9801 193.009L27.8371 204.614ZM106.105 13.7965C105.273 14.4152 104.449 15.0354 103.633 15.657L105.45 18.0441C106.258 17.4292 107.073 16.8156 107.896 16.2035L106.105 13.7965ZM98.8219 19.4035C97.2062 20.6909 95.6214 21.9839 94.0671 23.2822L95.9902 25.5847C97.5267 24.3013 99.0937 23.0228 100.691 21.7497L98.8219 19.4035ZM89.4461 27.2345C87.8895 28.5981 86.3654 29.9668 84.8732 31.3402L86.9048 33.5476C88.3788 32.1909 89.8847 30.8386 91.4229 29.4911L89.4461 27.2345ZM80.427 35.5364C78.9516 36.9646 77.5097 38.3972 76.1005 39.8336L78.2421 41.9345C79.6331 40.5166 81.0567 39.1022 82.5136 37.692L80.427 35.5364ZM71.856 44.2776C70.4546 45.785 69.0883 47.2959 67.7563 48.8099L70.0086 50.7915C71.3224 49.2983 72.6704 47.8076 74.0531 46.3203L71.856 44.2776ZM63.7867 53.4511C62.4639 55.0427 61.178 56.6369 59.9281 58.2329L62.29 60.0826C63.522 58.5095 64.7896 56.938 66.0939 55.3686L63.7867 53.4511ZM56.2257 63.1071C55.0068 64.7625 53.8256 66.4189 52.6812 68.0758L55.1496 69.7808C56.2768 68.1488 57.4404 66.517 58.6414 64.886L56.2257 63.1071ZM49.2692 73.1831C48.1481 74.9194 47.0664 76.6552 46.0229 78.3895L48.5936 79.9361C49.6206 78.2289 50.6856 76.5201 51.7895 74.8105L49.2692 73.1831ZM42.951 83.6867C41.9464 85.4853 40.9822 87.2813 40.0569 89.0737L42.7227 90.4498C43.6329 88.6865 44.5817 86.9194 45.5701 85.1495L42.951 83.6867ZM37.3353 94.5686C36.4481 96.4382 35.6023 98.3026 34.7967 100.161L37.5491 101.354C38.3413 99.5271 39.173 97.6936 40.0456 95.8549L37.3353 94.5686ZM32.4531 105.831C31.6967 107.754 30.9824 109.669 30.3087 111.575L33.1371 112.575C33.7993 110.702 34.5014 108.819 35.245 106.929L32.4531 105.831ZM28.3675 117.388C27.7475 119.36 27.1702 121.32 26.6337 123.266L29.5258 124.064C30.0529 122.152 30.6202 120.226 31.2294 118.288L28.3675 117.388ZM25.1115 129.203C24.6337 131.217 24.199 133.214 23.8052 135.193L26.7475 135.779C27.1342 133.836 27.5612 131.874 28.0305 129.896L25.1115 129.203ZM22.7189 141.229C22.3892 143.277 22.1028 145.303 21.8573 147.304L24.8349 147.669C25.076 145.705 25.3571 143.717 25.6808 141.705L22.7189 141.229ZM21.2251 153.411C21.0502 155.486 20.9188 157.53 20.8278 159.541L23.8248 159.677C23.914 157.704 24.0429 155.699 24.2145 153.663L21.2251 153.411ZM20.6719 165.686C20.6607 167.779 20.693 169.829 20.765 171.835L23.763 171.727C23.6925 169.763 23.6609 167.753 23.6719 165.702L20.6719 165.686ZM21.1164 177.972C21.2821 180.068 21.4909 182.105 21.7379 184.081L24.7147 183.708C24.4734 181.779 24.2692 179.786 24.1071 177.736L21.1164 177.972ZM22.6491 190.162C23.0192 192.27 23.4327 194.291 23.8822 196.217L26.8037 195.535C26.3671 193.664 25.9647 191.698 25.6039 189.644L22.6491 190.162Z" fill="#3F3D56"/>
</svg>
