<svg width="110" height="240" viewBox="0 0 110 240" fill="none" xmlns="http://www.w3.org/2000/svg">
<path d="M-0.000120978 226.562L17.1002 223.809L6.16603 210.376L-0.000120978 226.562ZM7.933 221.927C9.47255 220.611 10.9852 219.292 12.4713 217.969L10.4772 215.728C9.00598 217.037 7.5083 218.343 5.98374 219.646L7.933 221.927ZM16.9384 213.913C18.4248 212.534 19.8831 211.153 21.3137 209.77L19.2281 207.613C17.8128 208.982 16.3698 210.349 14.8987 211.713L16.9384 213.913ZM25.6027 205.531C27.0315 204.088 28.4308 202.642 29.8012 201.194L27.6223 199.132C26.2675 200.563 24.8838 201.993 23.4707 203.42L25.6027 205.531ZM33.8879 196.775C35.2534 195.265 36.588 193.752 37.8923 192.237L35.6192 190.28C34.3305 191.776 33.0117 193.271 31.6622 194.764L33.8879 196.775ZM41.7524 187.645C43.0478 186.065 44.3109 184.484 45.5425 182.902L43.1753 181.059C41.9593 182.621 40.7119 184.182 39.4325 185.743L41.7524 187.645ZM49.1746 178.111C50.3844 176.472 51.5611 174.832 52.7052 173.193L50.2451 171.476C49.1162 173.094 47.955 174.712 46.7608 176.33L49.1746 178.111ZM56.0949 168.194C57.2079 166.503 58.287 164.813 59.3331 163.125L56.7828 161.545C55.7513 163.21 54.687 164.876 53.5891 166.544L56.0949 168.194ZM62.4549 157.921C63.4741 156.166 64.4581 154.414 65.408 152.663L62.7713 151.232C61.8352 152.957 60.8653 154.685 59.8606 156.415L62.4549 157.921ZM68.208 147.318C69.1276 145.497 70.0109 143.68 70.8589 141.868L68.1415 140.596C67.3063 142.382 66.4362 144.172 65.5302 145.965L68.208 147.318ZM73.3324 136.363C74.136 134.499 74.903 132.64 75.6345 130.787L72.8441 129.686C72.124 131.51 71.3688 133.34 70.5775 135.176L73.3324 136.363ZM77.7719 125.112C78.4588 123.197 79.1084 121.29 79.7219 119.39L76.8671 118.468C76.2634 120.337 75.6241 122.215 74.9481 124.1L77.7719 125.112ZM81.4831 113.622C82.0465 111.664 82.5723 109.716 83.0617 107.779L80.1531 107.044C79.6717 108.95 79.1544 110.866 78.6 112.793L81.4831 113.622ZM84.4488 101.881C84.8822 99.8913 85.2779 97.9142 85.6375 95.9512L82.6866 95.4107C82.333 97.3412 81.9438 99.2857 81.5175 101.243L84.4488 101.881ZM86.6261 89.9924C86.9252 87.9812 87.1869 85.9864 87.413 84.0094L84.4325 83.6685C84.2102 85.6123 83.9529 87.5735 83.6588 89.5511L86.6261 89.9924ZM87.999 77.9751C88.1616 75.9383 88.2869 73.9225 88.377 71.929L85.3801 71.7935C85.2915 73.7527 85.1683 75.7342 85.0085 77.7363L87.999 77.9751ZM88.5454 65.8771C88.5666 63.833 88.5513 61.8151 88.5019 59.8251L85.5028 59.8996C85.5514 61.8546 85.5664 63.8373 85.5456 65.846L88.5454 65.8771ZM88.2439 53.7791C88.1199 51.7341 87.9603 49.7222 87.7681 47.7455L84.7822 48.0359C84.9709 49.9766 85.1276 51.9522 85.2494 53.9607L88.2439 53.7791ZM87.0702 41.7313C86.7948 39.6923 86.4851 37.6959 86.1446 35.7446L83.1893 36.2603C83.5231 38.1737 83.8269 40.132 84.0972 42.1329L87.0702 41.7313ZM84.9841 29.7952C84.5466 27.7712 84.0767 25.8037 83.579 23.8959L80.6761 24.6533C81.1632 26.5198 81.6232 28.4461 82.0518 30.429L84.9841 29.7952ZM81.9167 18.0644C81.2987 16.072 80.6514 14.1582 79.9812 12.3277L77.1641 13.3591C77.8166 15.1414 78.4479 17.0076 79.0514 18.9532L81.9167 18.0644ZM77.7208 6.65556C77.3108 5.70964 76.8953 4.7926 76.4756 3.90534L73.7637 5.1883C74.1691 6.04503 74.571 6.93209 74.9683 7.84869L77.7208 6.65556Z" fill="#3F3D56"/>
</svg>
